<svg width="1103" height="1083" viewBox="0 0 1103 1083" fill="none" xmlns="http://www.w3.org/2000/svg">
<g clip-path="url(#clip0_140_48)">
<rect width="1103" height="1083" fill="white" fill-opacity="0"/>
<path d="M356.667 575.912C350.423 550.998 372.998 528.423 397.912 534.667L508.566 562.398C534.192 568.82 543.023 600.738 524.342 619.419L441.419 702.342C422.738 721.023 390.82 712.192 384.398 686.566L356.667 575.912Z" fill="#F2A30B"/>
<path d="M194.392 486.624C195.631 471.026 208.65 459 224.297 459H352.423C367.759 459 380.626 470.566 382.254 485.816L442.458 1049.82C444.35 1067.54 430.456 1083 412.627 1083H179.479C161.973 1083 148.186 1068.07 149.573 1050.62L194.392 486.624Z" fill="#686262"/>
<path d="M446 0L1067.86 76.195C1087.92 78.6529 1103 95.688 1103 115.898V511.844C1103 532.793 1086.84 550.193 1065.94 551.735L446 597.5V0Z" fill="#686262"/>
<path d="M0 40C0 17.9086 17.9086 0 40 0H432C454.091 0 472 17.9086 472 40V558C472 580.091 454.091 598 432 598H40C17.9086 598 0 580.091 0 558V40Z" fill="#686262"/>
<rect x="83" y="81" width="236" height="436" rx="40" fill="#7B7170"/>
<rect x="83" y="134" width="236" height="329" fill="#B5A89F"/>
<path d="M431 0H443L449 0.716682V597L440 598H431V0Z" fill="#615C5C"/>
<path d="M123.16 324V251.28L109.6 254.28V247.32L126.52 240H133.36V324H123.16ZM177.251 325.44C171.891 325.44 167.051 324.48 162.731 322.56C158.411 320.56 154.931 317.6 152.291 313.68C149.731 309.76 148.371 304.88 148.211 299.04H158.411C158.491 303.84 160.171 308 163.451 311.52C166.731 314.96 171.331 316.68 177.251 316.68C183.171 316.68 187.611 315.04 190.571 311.76C193.611 308.48 195.131 304.52 195.131 299.88C195.131 295.96 194.171 292.76 192.251 290.28C190.411 287.8 187.891 285.96 184.691 284.76C181.571 283.56 178.131 282.96 174.371 282.96H168.131V274.44H174.371C179.811 274.44 184.051 273.2 187.091 270.72C190.211 268.24 191.771 264.76 191.771 260.28C191.771 256.52 190.531 253.44 188.051 251.04C185.651 248.56 182.051 247.32 177.251 247.32C172.611 247.32 168.891 248.72 166.091 251.52C163.291 254.24 161.731 257.68 161.411 261.84H151.211C151.451 257.28 152.651 253.24 154.811 249.72C157.051 246.2 160.091 243.48 163.931 241.56C167.771 239.56 172.211 238.56 177.251 238.56C182.691 238.56 187.211 239.52 190.811 241.44C194.491 243.36 197.251 245.92 199.091 249.12C201.011 252.32 201.971 255.84 201.971 259.68C201.971 263.92 200.811 267.8 198.491 271.32C196.171 274.76 192.691 277.08 188.051 278.28C193.011 279.32 197.131 281.68 200.411 285.36C203.691 289.04 205.331 293.88 205.331 299.88C205.331 304.52 204.251 308.8 202.091 312.72C200.011 316.56 196.891 319.64 192.731 321.96C188.571 324.28 183.411 325.44 177.251 325.44ZM254.398 325.44C246.958 325.44 240.518 323.64 235.078 320.04C229.718 316.36 225.598 311.28 222.718 304.8C219.838 298.24 218.398 290.64 218.398 282C218.398 273.36 219.838 265.8 222.718 259.32C225.598 252.76 229.718 247.68 235.078 244.08C240.518 240.4 246.958 238.56 254.398 238.56C261.838 238.56 268.238 240.4 273.598 244.08C278.958 247.68 283.078 252.76 285.958 259.32C288.838 265.8 290.278 273.36 290.278 282C290.278 290.64 288.838 298.24 285.958 304.8C283.078 311.28 278.958 316.36 273.598 320.04C268.238 323.64 261.838 325.44 254.398 325.44ZM254.398 316.56C259.278 316.56 263.638 315.2 267.478 312.48C271.398 309.68 274.438 305.72 276.598 300.6C278.838 295.4 279.958 289.2 279.958 282C279.958 274.8 278.838 268.64 276.598 263.52C274.438 258.4 271.398 254.48 267.478 251.76C263.638 248.96 259.278 247.56 254.398 247.56C249.438 247.56 245.038 248.96 241.198 251.76C237.358 254.48 234.318 258.4 232.078 263.52C229.838 268.64 228.718 274.8 228.718 282C228.718 289.2 229.838 295.4 232.078 300.6C234.318 305.72 237.358 309.68 241.198 312.48C245.038 315.2 249.438 316.56 254.398 316.56Z" fill="black"/>
<path d="M144.45 386V350H148.65V371.65L158.8 361.2H163.95L152.95 372.4L165.35 386H160L148.65 373.15V386H144.45ZM169.645 386V361.2H173.445L173.745 364.8C174.545 363.467 175.612 362.433 176.945 361.7C178.279 360.967 179.779 360.6 181.445 360.6C183.412 360.6 185.095 361 186.495 361.8C187.929 362.6 189.029 363.817 189.795 365.45C190.662 363.95 191.845 362.767 193.345 361.9C194.879 361.033 196.529 360.6 198.295 360.6C201.262 360.6 203.629 361.5 205.395 363.3C207.162 365.067 208.045 367.8 208.045 371.5V386H203.895V371.95C203.895 369.383 203.379 367.45 202.345 366.15C201.312 364.85 199.829 364.2 197.895 364.2C195.895 364.2 194.229 364.983 192.895 366.55C191.595 368.083 190.945 370.283 190.945 373.15V386H186.745V371.95C186.745 369.383 186.229 367.45 185.195 366.15C184.162 364.85 182.679 364.2 180.745 364.2C178.779 364.2 177.129 364.983 175.795 366.55C174.495 368.083 173.845 370.283 173.845 373.15V386H169.645ZM212.322 390.75L224.872 347.8H229.022L216.472 390.75H212.322ZM233.903 386V350H238.103V365.45C238.936 363.917 240.12 362.733 241.653 361.9C243.186 361.033 244.853 360.6 246.653 360.6C249.52 360.6 251.82 361.5 253.553 363.3C255.286 365.067 256.153 367.8 256.153 371.5V386H252.003V371.95C252.003 366.783 249.92 364.2 245.753 364.2C243.586 364.2 241.77 364.983 240.303 366.55C238.836 368.083 238.103 370.283 238.103 373.15V386H233.903Z" fill="black"/>
<rect x="153" y="480" width="104" height="20" rx="10" fill="#F2A30B"/>
</g>
<defs>
<clipPath id="clip0_140_48">
<rect width="1103" height="1083" fill="white" fill-opacity="0"/>
</clipPath>
</defs>
</svg>
